<?xml version="1.0" encoding="UTF-8" standalone="no"?>
<!DOCTYPE svg PUBLIC "-//W3C//DTD SVG 1.1//EN" "http://www.w3.org/Graphics/SVG/1.1/DTD/svg11.dtd">
<svg width="100%" height="100%" viewBox="0 0 512 512" version="1.1" xmlns="http://www.w3.org/2000/svg" xmlns:xlink="http://www.w3.org/1999/xlink" xml:space="preserve" xmlns:serif="http://www.serif.com/" style="fill-rule:evenodd;clip-rule:evenodd;stroke-linejoin:round;stroke-miterlimit:2;">
    <g>
        <path d="M383,81.68C408.967,81.707 430.32,103.082 430.32,129.05C430.32,155.036 408.936,176.42 382.95,176.42C356.964,176.42 335.58,155.036 335.58,129.05C335.58,129.033 335.58,129.017 335.58,129C335.607,103.032 356.982,81.68 382.95,81.68C382.967,81.68 382.983,81.68 383,81.68ZM81.67,383C81.692,408.971 103.069,430.33 129.04,430.33C155.026,430.33 176.41,408.946 176.41,382.96C176.41,356.974 155.026,335.59 129.04,335.59C129.027,335.59 129.013,335.59 129,335.59C103.029,335.612 81.67,356.989 81.67,382.96C81.67,382.973 81.67,382.987 81.67,383ZM428,47.57L84,47.57C64.025,47.597 47.597,64.025 47.57,84L47.57,428C47.597,447.975 64.025,464.403 84,464.43L428,464.43C447.975,464.403 464.403,447.975 464.43,428L464.43,84C464.403,64.025 447.975,47.597 428,47.57M428,27.57C458.934,27.63 484.37,53.066 484.43,84L484.43,428C484.37,458.934 458.934,484.37 428,484.43L84,484.43C53.066,484.37 27.63,458.934 27.57,428L27.57,84C27.63,53.066 53.066,27.63 84,27.57L428,27.57Z" style="fill:rgb(160,160,162);fill-rule:nonzero;"/>
    </g>
</svg>
