<?xml version="1.0" encoding="UTF-8" standalone="no"?>
<!DOCTYPE svg PUBLIC "-//W3C//DTD SVG 1.1//EN" "http://www.w3.org/Graphics/SVG/1.1/DTD/svg11.dtd">
<svg width="100%" height="100%" viewBox="0 0 328 295" version="1.1" xmlns="http://www.w3.org/2000/svg" xmlns:xlink="http://www.w3.org/1999/xlink" xml:space="preserve" xmlns:serif="http://www.serif.com/" style="fill-rule:evenodd;clip-rule:evenodd;stroke-linejoin:round;stroke-miterlimit:2;">
    <g id="Dibujo" transform="matrix(1,0,0,1,-93,-140)">
        <g>
            <path d="M352,213.333C349.296,213.333 346.069,213.755 342.997,214.315C331.824,176.064 296.869,149.333 256,149.333C215.131,149.333 180.171,176.064 169.008,214.315C165.931,213.755 162.704,213.333 160,213.333C127.653,213.333 101.333,239.653 101.333,272C101.333,304.347 127.653,330.667 160,330.667C165.888,330.667 170.667,325.888 170.667,320C170.667,314.112 165.888,309.333 160,309.333C139.413,309.333 122.667,292.581 122.667,272C122.667,251.419 139.413,234.667 160,234.667C161.477,234.667 163.856,235.029 166.363,235.531L166.363,245.333C166.363,251.221 171.141,256 177.029,256C182.917,256 187.696,251.221 187.696,245.333L187.696,228.155C193.424,194.811 222.027,170.667 256,170.667C289.973,170.667 318.571,194.811 324.304,228.155L324.304,245.333C324.304,251.221 329.083,256 334.971,256C340.859,256 345.637,251.221 345.637,245.333L345.637,235.531C348.144,235.029 350.517,234.667 352,234.667C372.581,234.667 389.333,251.419 389.333,272C389.333,292.581 372.581,309.333 352,309.333C346.112,309.333 341.333,314.112 341.333,320C341.333,325.888 346.112,330.667 352,330.667C384.347,330.667 410.667,304.347 410.667,272C410.667,239.653 384.347,213.333 352,213.333Z" style="fill:rgb(160,160,162);fill-rule:nonzero;"/>
            <path d="M263.92,277.653C258.197,276.213 252.411,279.701 250.981,285.413L218.981,413.413C217.552,419.131 221.029,424.917 226.741,426.352C227.611,426.565 228.48,426.667 229.339,426.667C234.117,426.667 238.464,423.435 239.68,418.587L271.68,290.587C273.109,284.869 269.637,279.083 263.92,277.653Z" style="fill:rgb(160,160,162);fill-rule:nonzero;"/>
            <path d="M306.581,309.653C300.864,308.208 295.077,311.701 293.648,317.413L277.648,381.413C276.219,387.131 279.696,392.923 285.413,394.352C286.283,394.571 287.152,394.672 288.005,394.672C292.784,394.672 297.136,391.44 298.347,386.592L314.341,322.592C315.776,316.869 312.299,311.077 306.581,309.653Z" style="fill:rgb(160,160,162);fill-rule:nonzero;"/>
            <path d="M205.248,309.653C199.547,308.208 193.744,311.701 192.315,317.413L176.315,381.413C174.885,387.131 178.363,392.923 184.08,394.352C184.949,394.571 185.819,394.672 186.672,394.672C191.451,394.672 195.803,391.44 197.013,386.592L213.013,322.592C214.443,316.869 210.965,311.077 205.248,309.653Z" style="fill:rgb(160,160,162);fill-rule:nonzero;"/>
        </g>
    </g>
</svg>
