<?xml version="1.0" encoding="UTF-8" standalone="no"?>
<!DOCTYPE svg PUBLIC "-//W3C//DTD SVG 1.1//EN" "http://www.w3.org/Graphics/SVG/1.1/DTD/svg11.dtd">
<svg width="100%" height="100%" viewBox="0 0 331 302" version="1.1" xmlns="http://www.w3.org/2000/svg" xmlns:xlink="http://www.w3.org/1999/xlink" xml:space="preserve" xmlns:serif="http://www.serif.com/" style="fill-rule:evenodd;clip-rule:evenodd;stroke-linejoin:round;stroke-miterlimit:2;">
    <g id="Dibujo" transform="matrix(1,0,0,1,-91,-138)">
        <path d="M352,213.333C349.291,213.333 346.069,213.755 342.992,214.315C331.829,176.064 296.869,149.333 256,149.333C215.125,149.333 180.165,176.064 169.003,214.315C165.931,213.755 162.704,213.333 160,213.333C127.653,213.333 101.333,239.653 101.333,272C101.333,304.347 127.653,330.667 160,330.667L220.069,330.667L199.125,362.085C196.944,365.355 196.741,369.563 198.592,373.035C200.453,376.501 204.069,378.667 208,378.667L220.069,378.667L199.125,410.085C195.861,414.987 197.184,421.611 202.085,424.875C203.899,426.091 205.957,426.667 207.989,426.667C211.435,426.667 214.816,424.997 216.875,421.915L248.875,373.915C251.056,370.645 251.259,366.437 249.408,362.965C247.547,359.499 243.931,357.333 240,357.333L227.931,357.333L245.707,330.667L273.397,330.667L263.12,346.085C260.939,349.355 260.736,353.563 262.587,357.035C264.453,360.501 268.069,362.667 272,362.667L284.069,362.667L273.792,378.085C270.528,382.987 271.851,389.611 276.752,392.875C278.565,394.091 280.624,394.667 282.656,394.667C286.101,394.667 289.483,392.997 291.541,389.915L312.875,357.915C315.056,354.645 315.259,350.437 313.408,346.965C311.547,343.499 307.931,341.333 304,341.333L291.931,341.333L299.04,330.667L352,330.667C384.347,330.667 410.667,304.347 410.667,272C410.667,239.653 384.347,213.333 352,213.333ZM352,309.333L160,309.333C139.419,309.333 122.667,292.581 122.667,272C122.667,251.419 139.419,234.667 160,234.667C161.477,234.667 163.856,235.029 166.363,235.531L166.363,245.333C166.363,251.221 171.136,256 177.029,256C182.923,256 187.696,251.221 187.696,245.333L187.696,228.165C193.419,194.816 222.021,170.667 256,170.667C289.973,170.667 318.576,194.816 324.304,228.171L324.304,245.333C324.304,251.221 329.083,256 334.971,256C340.859,256 345.637,251.221 345.637,245.333L345.637,235.536C348.144,235.035 350.539,234.667 352,234.667C372.581,234.667 389.333,251.419 389.333,272C389.333,292.581 372.581,309.333 352,309.333Z" style="fill:rgb(160,160,162);fill-rule:nonzero;"/>
    </g>
</svg>
