<?xml version="1.0" encoding="UTF-8" standalone="no"?>
<!DOCTYPE svg PUBLIC "-//W3C//DTD SVG 1.1//EN" "http://www.w3.org/Graphics/SVG/1.1/DTD/svg11.dtd">
<svg width="100%" height="100%" viewBox="0 0 373 267" version="1.1" xmlns="http://www.w3.org/2000/svg" xmlns:xlink="http://www.w3.org/1999/xlink" xml:space="preserve" xmlns:serif="http://www.serif.com/" style="fill-rule:evenodd;clip-rule:evenodd;stroke-linejoin:round;stroke-miterlimit:2;">
    <g id="Dibujo" transform="matrix(1,0,0,1,-92,-140)">
        <g>
            <path d="M368,234.667C379.765,234.667 389.333,244.235 389.333,256C389.333,267.765 379.765,277.333 368,277.333L256,277.333C250.107,277.333 245.333,282.112 245.333,288C245.333,293.888 250.107,298.667 256,298.667L368,298.667C391.525,298.667 410.667,279.525 410.667,256C410.667,232.475 391.525,213.333 368,213.333C362.107,213.333 357.333,218.112 357.333,224C357.333,229.888 362.107,234.667 368,234.667Z" style="fill:rgb(160,160,162);fill-rule:nonzero;"/>
            <path d="M352,309.333L191.995,309.328L160,309.333C139.419,309.333 122.667,292.581 122.667,272C122.667,251.419 139.419,234.667 160,234.667C161.477,234.667 163.861,235.029 166.368,235.531L166.368,245.333C166.368,251.221 171.147,256 177.035,256C182.923,256 187.701,251.221 187.701,245.333L187.701,228.139C193.435,194.8 222.032,170.667 256,170.667C294.229,170.667 325.333,201.771 325.333,240L325.333,245.333C325.333,251.221 330.107,256 336,256C341.888,256 346.667,251.221 346.667,245.333L346.667,240C346.667,190.005 305.995,149.333 256,149.333C215.125,149.333 180.165,176.064 169.003,214.315C165.931,213.755 162.704,213.333 160,213.333C127.653,213.333 101.333,239.653 101.333,272C101.333,304.347 127.653,330.667 160,330.667L191.995,330.661L352,330.667C372.581,330.667 389.333,347.419 389.333,368C389.333,373.888 394.107,378.667 400,378.667C405.888,378.667 410.667,373.888 410.667,368C410.667,335.653 384.347,309.333 352,309.333Z" style="fill:rgb(160,160,162);fill-rule:nonzero;"/>
            <path d="M351.995,341.333L160,341.333C154.107,341.333 149.333,346.112 149.333,352C149.333,357.888 154.107,362.667 160,362.667L351.995,362.667C354.939,362.667 357.328,365.056 357.328,368C357.328,370.944 354.939,373.333 351.995,373.333C346.101,373.333 341.328,378.112 341.328,384C341.328,389.888 346.101,394.667 351.995,394.667C366.699,394.667 378.661,382.704 378.661,368C378.661,353.296 366.699,341.333 351.995,341.333Z" style="fill:rgb(160,160,162);fill-rule:nonzero;"/>
            <path d="M426.667,266.667C420.773,266.667 416,271.445 416,277.333C416,283.221 420.773,288 426.667,288C429.611,288 432,290.389 432,293.333C432,296.277 429.611,298.667 426.667,298.667L405.333,298.667C399.44,298.667 394.667,303.445 394.667,309.333C394.667,315.221 399.44,320 405.333,320L426.667,320C441.371,320 453.333,308.037 453.333,293.333C453.333,278.629 441.371,266.667 426.667,266.667Z" style="fill:rgb(160,160,162);fill-rule:nonzero;"/>
        </g>
    </g>
</svg>
