<?xml version="1.0" encoding="UTF-8" standalone="no"?>
<!DOCTYPE svg PUBLIC "-//W3C//DTD SVG 1.1//EN" "http://www.w3.org/Graphics/SVG/1.1/DTD/svg11.dtd">
<svg width="100%" height="100%" viewBox="0 0 300 300" version="1.1" xmlns="http://www.w3.org/2000/svg" xmlns:xlink="http://www.w3.org/1999/xlink" xml:space="preserve" xmlns:serif="http://www.serif.com/" style="fill-rule:evenodd;clip-rule:evenodd;stroke-linejoin:round;stroke-miterlimit:2;">
    <g id="Dibujo" transform="matrix(1,0,0,1,-106,-106)">
        <g>
            <path d="M266.667,311.595L266.667,250.667C266.667,244.779 261.888,240 256,240C250.107,240 245.333,244.779 245.333,250.667L245.333,311.595C235.931,315.717 229.333,325.093 229.333,336C229.333,350.704 241.296,362.667 256,362.667C270.704,362.667 282.667,350.704 282.667,336C282.667,325.093 276.069,315.717 266.667,311.595ZM256,341.333C253.056,341.333 250.667,338.944 250.667,336C250.667,333.056 253.056,330.667 256,330.667C258.944,330.667 261.333,333.056 261.333,336C261.333,338.944 258.944,341.333 256,341.333Z" style="fill:rgb(160,160,162);fill-rule:nonzero;"/>
            <path d="M298.715,295.781L298.667,160C298.667,136.475 279.525,117.333 256,117.333C232.475,117.333 213.333,136.475 213.333,159.995L213.28,295.781C203.093,306.624 197.333,321.024 197.333,336C197.333,368.347 223.653,394.667 256,394.667C288.347,394.667 314.667,368.347 314.667,336C314.667,321.019 308.907,306.619 298.715,295.781ZM256,373.333C235.419,373.333 218.667,356.581 218.667,336C218.667,325.419 223.189,315.28 231.077,308.197C233.328,306.171 234.613,303.291 234.613,300.267L234.667,160C234.667,148.235 244.235,138.667 256,138.667C267.765,138.667 277.333,148.235 277.333,160.005L277.381,300.267C277.381,303.291 278.667,306.176 280.923,308.197C288.805,315.28 293.333,325.413 293.333,336C293.333,356.581 276.581,373.333 256,373.333Z" style="fill:rgb(160,160,162);fill-rule:nonzero;"/>
        </g>
    </g>
</svg>
