<?xml version="1.0" encoding="UTF-8" standalone="no"?>
<!DOCTYPE svg PUBLIC "-//W3C//DTD SVG 1.1//EN" "http://www.w3.org/Graphics/SVG/1.1/DTD/svg11.dtd">
<svg width="100%" height="100%" viewBox="0 0 400 318" version="1.1" xmlns="http://www.w3.org/2000/svg" xmlns:xlink="http://www.w3.org/1999/xlink" xml:space="preserve" xmlns:serif="http://www.serif.com/" style="fill-rule:evenodd;clip-rule:evenodd;stroke-linejoin:round;stroke-miterlimit:2;">
    <g transform="matrix(1.04758,0,0,1.04758,-92.8212,-44.7316)">
        <g id="Dibujo">
            <g>
                <path d="M386.965,224.997C392.005,214.779 394.667,203.552 394.667,192C394.667,150.827 361.173,117.333 320,117.333C295.461,117.333 272.56,129.499 258.688,149.445C257.792,149.419 256.907,149.333 256.005,149.333C215.131,149.333 180.171,176.064 169.013,214.315C165.936,213.755 162.709,213.333 160.005,213.333C127.653,213.333 101.339,239.653 101.339,272C101.339,304.347 127.653,330.667 160.005,330.667L352.005,330.667C384.352,330.667 410.672,304.347 410.672,272C410.672,252.757 401.317,235.701 386.965,224.997ZM320,138.667C349.408,138.667 373.333,162.592 373.333,192C373.333,200.256 371.413,208.267 367.808,215.557C362.768,214.144 357.483,213.333 352.005,213.333C349.296,213.333 346.075,213.755 342.992,214.315C334.416,184.923 311.771,162.395 283.205,153.509C293.008,144.16 306.117,138.667 320,138.667ZM352.005,309.333L160.005,309.333C139.424,309.333 122.672,292.581 122.672,272C122.672,251.419 139.424,234.667 160.005,234.667C161.483,234.667 163.861,235.029 166.368,235.531L166.368,245.333C166.368,251.221 171.147,256 177.035,256C182.923,256 187.701,251.221 187.701,245.333L187.701,228.165C193.424,194.816 222.027,170.667 256.005,170.667C289.989,170.667 318.597,194.827 324.309,228.192L324.309,245.333C324.309,251.221 329.088,256 334.976,256C340.864,256 345.643,251.221 345.643,245.333L345.643,235.536C348.155,235.035 350.544,234.667 352.005,234.667C372.587,234.667 389.339,251.419 389.339,272C389.339,292.581 372.587,309.333 352.005,309.333Z" style="fill:rgb(160,160,162);fill-rule:nonzero;"/>
                <path d="M320,96C325.888,96 330.667,91.221 330.667,85.333L330.667,64C330.667,58.112 325.888,53.333 320,53.333C314.107,53.333 309.333,58.112 309.333,64L309.333,85.333C309.333,91.221 314.107,96 320,96Z" style="fill:rgb(160,160,162);fill-rule:nonzero;"/>
                <path d="M448,181.333L426.667,181.333C420.773,181.333 416,186.112 416,192C416,197.888 420.773,202.667 426.667,202.667L448,202.667C453.888,202.667 458.667,197.888 458.667,192C458.667,186.112 453.888,181.333 448,181.333Z" style="fill:rgb(160,160,162);fill-rule:nonzero;"/>
                <path d="M395.429,127.237C398.16,127.237 400.885,126.197 402.971,124.112L418.053,109.029C422.219,104.864 422.219,98.112 418.053,93.947C413.888,89.781 407.136,89.781 402.971,93.947L387.888,109.029C383.723,113.195 383.723,119.947 387.888,124.112C389.968,126.197 392.699,127.237 395.429,127.237Z" style="fill:rgb(160,160,162);fill-rule:nonzero;"/>
                <path d="M237.029,124.112C239.115,126.197 241.84,127.237 244.571,127.237C247.301,127.237 250.027,126.197 252.112,124.112C256.277,119.947 256.277,113.195 252.112,109.029L237.029,93.947C232.864,89.781 226.112,89.781 221.947,93.947C217.781,98.112 217.781,104.864 221.947,109.029L237.029,124.112Z" style="fill:rgb(160,160,162);fill-rule:nonzero;"/>
            </g>
        </g>
    </g>
</svg>
