<?xml version="1.0" encoding="UTF-8" standalone="no"?>
<!DOCTYPE svg PUBLIC "-//W3C//DTD SVG 1.1//EN" "http://www.w3.org/Graphics/SVG/1.1/DTD/svg11.dtd">
<svg width="100%" height="100%" viewBox="0 0 300 300" version="1.1" xmlns="http://www.w3.org/2000/svg" xmlns:xlink="http://www.w3.org/1999/xlink" xml:space="preserve" xmlns:serif="http://www.serif.com/" style="fill-rule:evenodd;clip-rule:evenodd;stroke-linejoin:round;stroke-miterlimit:2;">
    <g id="Dibujo" transform="matrix(1,0,0,1,-106,-106)">
        <path d="M331.424,191.243C334.155,191.243 336.885,190.203 338.965,188.117L354.053,173.029C358.219,168.864 358.219,162.112 354.053,157.947C349.888,153.781 343.131,153.781 338.971,157.947L323.883,173.035C319.717,177.2 319.717,183.952 323.883,188.117C325.963,190.203 328.693,191.243 331.424,191.243ZM160,256C160,250.112 155.221,245.333 149.333,245.333L128,245.333C122.112,245.333 117.333,250.112 117.333,256C117.333,261.888 122.112,266.667 128,266.667L149.333,266.667C155.221,266.667 160,261.888 160,256ZM173.035,323.883L157.947,338.971C153.781,343.136 153.781,349.888 157.947,354.053C160.027,356.139 162.757,357.179 165.488,357.179C168.219,357.179 170.949,356.139 173.029,354.053L188.117,338.965C192.283,334.8 192.283,328.048 188.117,323.883C183.957,319.717 177.195,319.717 173.035,323.883ZM173.035,188.117C175.115,190.203 177.845,191.243 180.576,191.243C183.307,191.243 186.037,190.203 188.117,188.117C192.283,183.952 192.283,177.2 188.117,173.035L173.029,157.947C168.869,153.781 162.107,153.781 157.947,157.947C153.781,162.112 153.781,168.864 157.947,173.029L173.035,188.117ZM256,160C261.888,160 266.667,155.221 266.667,149.333L266.667,128C266.667,122.112 261.888,117.333 256,117.333C250.112,117.333 245.333,122.112 245.333,128L245.333,149.333C245.333,155.221 250.112,160 256,160ZM384,245.333L362.667,245.333C356.779,245.333 352,250.112 352,256C352,261.888 356.779,266.667 362.667,266.667L384,266.667C389.888,266.667 394.667,261.888 394.667,256C394.667,250.112 389.888,245.333 384,245.333ZM338.965,323.883C334.805,319.717 328.043,319.717 323.883,323.883C319.717,328.048 319.717,334.8 323.883,338.965L338.971,354.053C341.051,356.139 343.781,357.179 346.512,357.179C349.243,357.179 351.968,356.139 354.053,354.053C358.219,349.888 358.219,343.136 354.053,338.971L338.965,323.883ZM256,352C250.112,352 245.333,356.779 245.333,362.667L245.333,384C245.333,389.888 250.112,394.667 256,394.667C261.888,394.667 266.667,389.888 266.667,384L266.667,362.667C266.667,356.779 261.888,352 256,352ZM256,181.333C214.827,181.333 181.333,214.827 181.333,256C181.333,297.173 214.827,330.667 256,330.667C297.173,330.667 330.667,297.173 330.667,256C330.667,214.827 297.173,181.333 256,181.333ZM256,309.333C226.592,309.333 202.667,285.408 202.667,256C202.667,226.592 226.592,202.667 256,202.667C285.408,202.667 309.333,226.592 309.333,256C309.333,285.408 285.408,309.333 256,309.333Z" style="fill:rgb(160,160,162);fill-rule:nonzero;"/>
    </g>
</svg>
