<?xml version="1.0" encoding="UTF-8" standalone="no"?>
<!DOCTYPE svg PUBLIC "-//W3C//DTD SVG 1.1//EN" "http://www.w3.org/Graphics/SVG/1.1/DTD/svg11.dtd">
<svg width="100%" height="100%" viewBox="0 0 680 615" version="1.1" xmlns="http://www.w3.org/2000/svg" xmlns:xlink="http://www.w3.org/1999/xlink" xml:space="preserve" xmlns:serif="http://www.serif.com/" style="fill-rule:evenodd;clip-rule:evenodd;stroke-linejoin:round;stroke-miterlimit:2;">
    <g transform="matrix(0.866025,0.5,-0.5,0.866025,198.565,-249.273)">
        <path d="M400,739.333C395.557,739.367 391.183,738.217 387.333,736L129,587C125.437,584.88 122.45,581.917 120.299,578.37C118.149,574.827 116.902,570.807 116.667,566.667L116.667,266.667C116.613,262.286 117.727,257.969 119.895,254.161C122.062,250.353 125.205,247.191 129,245L387.333,95.667C391.153,93.536 395.457,92.417 399.833,92.417C404.21,92.417 408.513,93.536 412.333,95.667L670.667,245C674.547,247.12 677.777,250.257 680.01,254.075C682.24,257.892 683.39,262.245 683.333,266.667L683.333,566.667C683.353,571.08 682.19,575.42 679.96,579.23C677.733,583.043 674.523,586.187 670.667,588.333L412.333,737.333C408.487,739.127 404.217,739.817 400,739.333ZM166.667,550.667L400,685.667L633.333,550.667L633.333,281.334L400,148L166.667,281.334L166.667,550.667Z" style="fill:rgb(160,160,162);fill-rule:nonzero;"/>
    </g>
    <g transform="matrix(0.5,0.866025,-0.866025,0.5,498.22,-242.439)">
        <path d="M400,555.333C396.707,555.41 393.437,554.793 390.393,553.533C387.35,552.27 384.607,550.387 382.333,548L291,457C286.377,452.217 283.793,445.82 283.793,439.167C283.793,432.513 286.377,426.12 291,421.333C295.688,416.653 302.042,414.023 308.667,414.023C315.292,414.023 321.646,416.653 326.333,421.333L375,470L375,307.001C375,300.37 377.633,294.011 382.323,289.323C387.01,284.635 393.37,282.001 400,282.001C406.63,282.001 412.99,284.635 417.677,289.323C422.367,294.011 425,300.37 425,307.001L425,530.333C425.057,535.307 423.627,540.183 420.893,544.34C418.163,548.497 414.253,551.743 409.667,553.667C406.59,554.863 403.3,555.43 400,555.333Z" style="fill:rgb(160,160,162);fill-rule:nonzero;"/>
    </g>
    <g transform="matrix(0.5,0.866025,-0.866025,0.5,498.22,-242.439)">
        <path d="M400,555.333C396.717,555.35 393.46,554.707 390.427,553.45C387.393,552.19 384.64,550.337 382.333,548C377.653,543.313 375.023,536.957 375.023,530.333C375.023,523.707 377.653,517.353 382.333,512.667L473.667,421.333C478.353,416.65 484.71,414.023 491.333,414.023C497.96,414.023 504.313,416.65 509,421.333C513.623,426.12 516.207,432.513 516.207,439.167C516.207,445.82 513.623,452.213 509,457L417.667,548C415.36,550.337 412.607,552.19 409.573,553.45C406.54,554.707 403.283,555.35 400,555.333Z" style="fill:rgb(160,160,162);fill-rule:nonzero;"/>
    </g>
</svg>
